<svg width="100pt" height="32pt" viewBox="0 0 1406 305" fill="none" xmlns="http://www.w3.org/2000/svg">
<path d="M50.24 264.28C44.7973 264.28 39.7733 262.187 35.168 258C30.5627 254.232 28.26 249.627 28.26 244.184V39.456C28.26 29.8267 31.4 22.0813 37.68 16.22C44.3787 9.93999 52.124 6.8 60.916 6.8H158.884C166.001 6.8 171.025 8.68399 173.956 12.452C177.305 16.22 178.98 20.8253 178.98 26.268C178.98 31.7107 177.096 36.316 173.328 40.084C169.56 43.852 164.745 45.736 158.884 45.736H88.548C77.6627 45.736 72.22 51.1787 72.22 62.064V97.86C72.22 108.745 77.244 114.188 87.292 114.188H153.232C160.349 114.188 165.373 116.281 168.304 120.468C171.653 124.236 173.328 128.632 173.328 133.656C173.328 138.68 171.444 143.285 167.676 147.472C163.908 151.24 159.093 153.124 153.232 153.124H87.292C77.244 153.124 72.22 158.357 72.22 168.824V244.184C72.22 249.627 69.9173 254.232 65.312 258C61.1253 262.187 56.1013 264.28 50.24 264.28ZM294.557 264.28C263.157 264.28 238.665 255.279 221.081 237.276C203.497 219.273 194.705 194.991 194.705 164.428C194.705 137.633 203.497 115.653 221.081 98.488C239.083 81.3227 262.11 72.74 290.161 72.74C317.374 72.74 339.145 80.6947 355.473 96.604C371.801 112.095 379.965 131.353 379.965 154.38C379.965 163.591 377.453 170.499 372.429 175.104C367.823 179.709 361.753 182.012 354.217 182.012H244.945C240.758 182.012 239.293 184.315 240.549 188.92C243.898 200.643 250.597 209.853 260.645 216.552C271.111 222.832 282.834 225.972 295.813 225.972C305.442 225.972 314.653 224.716 323.445 222.204C332.655 219.692 340.61 215.924 347.309 210.9C349.402 209.225 352.123 208.388 355.473 208.388C360.078 208.388 364.265 210.481 368.033 214.668C371.801 218.436 373.685 223.041 373.685 228.484C373.685 230.996 373.266 233.508 372.429 236.02C371.591 238.532 369.707 241.044 366.777 243.556C355.891 251.511 344.169 256.953 331.609 259.884C319.467 262.815 307.117 264.28 294.557 264.28ZM330.981 149.356C333.493 149.356 334.749 148.1 334.749 145.588C334.749 135.959 330.353 127.585 321.561 120.468C313.187 113.351 302.721 109.792 290.161 109.792C279.275 109.792 268.809 112.723 258.761 118.584C249.131 124.445 243.27 132.191 241.177 141.82C241.177 141.82 241.177 142.029 241.177 142.448C240.758 144.123 240.549 145.588 240.549 146.844C240.967 148.1 242.851 148.728 246.201 148.728L330.981 149.356ZM504.765 264.28C486.762 264.28 470.643 260.093 456.409 251.72C442.174 243.347 431.079 231.833 423.125 217.18C415.17 202.108 411.193 185.361 411.193 166.94C411.193 148.937 415.17 132.819 423.125 118.584C431.079 104.349 442.174 93.2547 456.409 85.3C470.643 76.9267 486.762 72.74 504.765 72.74C516.487 72.74 526.954 74.8333 536.165 79.02C545.375 82.788 553.33 87.812 560.029 94.092C560.866 88.2307 563.378 83.8347 567.565 80.904C571.751 77.5547 576.357 75.88 581.381 75.88C586.823 75.88 591.638 77.764 595.825 81.532C600.43 84.8813 602.733 90.1147 602.733 97.232V244.812C602.733 251.092 600.43 255.907 595.825 259.256C591.638 262.605 586.823 264.28 581.381 264.28C575.938 264.28 570.914 262.605 566.309 259.256C562.122 255.907 560.029 251.092 560.029 244.812V242.3C553.33 248.999 545.375 254.232 536.165 258C526.954 262.187 516.487 264.28 504.765 264.28ZM508.533 225.344C524.442 225.344 537.002 220.111 546.213 209.644C555.423 198.759 560.029 184.524 560.029 166.94C560.029 150.193 555.423 136.796 546.213 126.748C537.002 116.7 524.442 111.676 508.533 111.676C492.205 111.676 479.017 116.7 468.969 126.748C458.921 136.796 453.897 150.193 453.897 166.94C453.897 184.524 458.921 198.759 468.969 209.644C479.017 220.111 492.205 225.344 508.533 225.344ZM721.018 264.28C704.69 264.28 691.292 259.256 680.826 249.208C670.359 239.16 665.126 224.088 665.126 203.992V124.236C665.126 120.049 663.032 117.956 658.846 117.956H647.542C642.099 117.956 637.494 116.281 633.726 112.932C629.958 109.164 628.074 104.559 628.074 99.116C628.074 93.2547 629.958 88.44 633.726 84.672C637.494 80.904 642.099 79.02 647.542 79.02H658.846C663.032 79.02 665.126 76.9267 665.126 72.74V19.988C665.126 14.1267 667.01 9.52133 670.778 6.17199C674.964 2.40398 679.988 0.519984 685.85 0.519984C692.13 0.519984 697.154 2.40398 700.922 6.17199C705.108 9.52133 707.202 14.1267 707.202 19.988V72.74C707.202 76.9267 709.295 79.02 713.482 79.02H747.394C752.418 79.02 756.814 80.904 760.582 84.672C764.35 88.44 766.234 93.2547 766.234 99.116C766.234 104.559 764.35 109.164 760.582 112.932C757.232 116.281 752.627 117.956 746.766 117.956H713.482C709.295 117.956 707.202 120.049 707.202 124.236V198.34C707.202 215.924 714.319 224.716 728.554 224.716C732.74 224.716 737.136 224.088 741.742 222.832C746.347 221.576 749.487 220.948 751.162 220.948C757.023 220.948 761.419 222.832 764.35 226.6C767.699 230.368 769.374 234.764 769.374 239.788C769.374 243.556 768.327 247.324 766.234 251.092C764.14 254.441 760.791 256.953 756.186 258.628C751.58 260.303 745.719 261.559 738.602 262.396C731.903 263.652 726.042 264.28 721.018 264.28ZM930.917 93.464C930.917 87.6027 932.801 82.788 936.569 79.02C940.755 74.8333 945.989 72.74 952.269 72.74C958.13 72.74 963.154 74.8333 967.341 79.02C971.527 82.788 973.621 87.6027 973.621 93.464V182.012C973.621 200.852 969.434 216.343 961.061 228.484C952.687 240.625 941.802 249.627 928.405 255.488C915.007 261.349 900.773 264.28 885.701 264.28C870.629 264.28 856.394 261.349 842.997 255.488C829.599 249.627 818.714 240.625 810.341 228.484C801.967 216.343 797.781 200.852 797.781 182.012V93.464C797.781 87.6027 799.665 82.788 803.433 79.02C807.619 74.8333 812.853 72.74 819.133 72.74C824.994 72.74 830.018 74.8333 834.205 79.02C838.391 82.788 840.485 87.6027 840.485 93.464V182.012C840.485 197.503 845.09 208.597 854.301 215.296C863.511 221.995 873.978 225.344 885.701 225.344C897.842 225.344 908.309 221.995 917.101 215.296C926.311 208.597 930.917 197.503 930.917 182.012V93.464ZM1063.18 165.056V244.812C1063.18 251.092 1060.88 255.907 1056.27 259.256C1052.08 262.605 1047.27 264.28 1041.83 264.28C1036.38 264.28 1031.36 262.605 1026.76 259.256C1022.57 255.907 1020.48 251.092 1020.48 244.812V97.232C1020.48 90.1147 1022.57 84.8813 1026.76 81.532C1031.36 77.764 1036.38 75.88 1041.83 75.88C1047.27 75.88 1052.08 77.764 1056.27 81.532C1060.88 84.8813 1063.18 90.1147 1063.18 97.232V99.744C1069.04 91.7893 1076.58 85.3 1085.79 80.276C1095.42 75.252 1105.46 72.74 1115.93 72.74C1120.96 72.74 1125.98 73.368 1131 74.624C1136.03 75.88 1139.8 78.392 1142.31 82.16C1144.82 85.928 1146.08 90.1147 1146.08 94.72C1146.08 100.163 1144.19 105.187 1140.42 109.792C1137.07 113.979 1132.05 116.072 1125.35 116.072C1122.42 116.072 1119.28 115.653 1115.93 114.816C1113 113.979 1109.23 113.56 1104.63 113.56C1092.49 113.56 1082.44 118.165 1074.48 127.376C1066.95 136.587 1063.18 149.147 1063.18 165.056Z" fill="#282828"/>
<g style="mix-blend-mode:multiply">
<rect x="1256.5" y="11.5" width="147.912" height="73" rx="36.5" fill="white"/>
<rect x="1256.5" y="11.5" width="147.912" height="73" rx="36.5" stroke="#FF3A4C" stroke-width="3"/>
</g>
<circle cx="1368.22" cy="48.0001" r="28.2105" fill="#FF3A4C" stroke="#FF3A4C" stroke-width="3"/>
<circle cx="1368.22" cy="48.0001" r="28.2105" fill="#FF3A4C" stroke="#FF3A4C" stroke-width="3"/>
<path d="M1257 144C1257 115.281 1280.28 92 1309 92V92C1316.18 92 1322 97.8203 1322 105V232.5C1322 250.449 1307.45 265 1289.5 265V265C1271.55 265 1257 250.449 1257 232.5V144Z" fill="#FF3A4C"/>
<path d="M1173 158C1173 129.281 1196.28 106 1225 106V106C1232.18 106 1238 111.82 1238 119V232.5C1238 250.449 1223.45 265 1205.5 265V265C1187.55 265 1173 250.449 1173 232.5V158Z" fill="#FF3A4C"/>
<rect x="1320.41" y="84.5" width="147.912" height="73" rx="36.5" transform="rotate(-180 1320.41 84.5)" fill="#FF3A4C" stroke="#FF3A4C" stroke-width="3"/>
<circle cx="1208.69" cy="47.9999" r="28.2105" transform="rotate(-180 1208.69 47.9999)" fill="white" stroke="#FF3A4C" stroke-width="3"/>
<circle cx="1208.69" cy="47.9999" r="28.2105" transform="rotate(-180 1208.69 47.9999)" fill="white" stroke="white" stroke-width="3"/>
</svg>
