<svg width="1413" height="909" viewBox="0 0 1413 909" fill="none" xmlns="http://www.w3.org/2000/svg">
<path d="M50.24 540.28C44.7973 540.28 39.7733 538.187 35.168 534C30.5627 530.232 28.26 525.627 28.26 520.184V315.456C28.26 305.827 31.4 298.081 37.68 292.22C44.3787 285.94 52.124 282.8 60.916 282.8H158.884C166.001 282.8 171.025 284.684 173.956 288.452C177.305 292.22 178.98 296.825 178.98 302.268C178.98 307.711 177.096 312.316 173.328 316.084C169.56 319.852 164.745 321.736 158.884 321.736H88.548C77.6627 321.736 72.22 327.179 72.22 338.064V373.86C72.22 384.745 77.244 390.188 87.292 390.188H153.232C160.349 390.188 165.373 392.281 168.304 396.468C171.653 400.236 173.328 404.632 173.328 409.656C173.328 414.68 171.444 419.285 167.676 423.472C163.908 427.24 159.093 429.124 153.232 429.124H87.292C77.244 429.124 72.22 434.357 72.22 444.824V520.184C72.22 525.627 69.9173 530.232 65.312 534C61.1253 538.187 56.1013 540.28 50.24 540.28ZM294.557 540.28C263.157 540.28 238.665 531.279 221.081 513.276C203.497 495.273 194.705 470.991 194.705 440.428C194.705 413.633 203.497 391.653 221.081 374.488C239.083 357.323 262.11 348.74 290.161 348.74C317.374 348.74 339.145 356.695 355.473 372.604C371.801 388.095 379.965 407.353 379.965 430.38C379.965 439.591 377.453 446.499 372.429 451.104C367.823 455.709 361.753 458.012 354.217 458.012H244.945C240.758 458.012 239.293 460.315 240.549 464.92C243.898 476.643 250.597 485.853 260.645 492.552C271.111 498.832 282.834 501.972 295.813 501.972C305.442 501.972 314.653 500.716 323.445 498.204C332.655 495.692 340.61 491.924 347.309 486.9C349.402 485.225 352.123 484.388 355.473 484.388C360.078 484.388 364.265 486.481 368.033 490.668C371.801 494.436 373.685 499.041 373.685 504.484C373.685 506.996 373.266 509.508 372.429 512.02C371.591 514.532 369.707 517.044 366.777 519.556C355.891 527.511 344.169 532.953 331.609 535.884C319.467 538.815 307.117 540.28 294.557 540.28ZM330.981 425.356C333.493 425.356 334.749 424.1 334.749 421.588C334.749 411.959 330.353 403.585 321.561 396.468C313.187 389.351 302.721 385.792 290.161 385.792C279.275 385.792 268.809 388.723 258.761 394.584C249.131 400.445 243.27 408.191 241.177 417.82C241.177 417.82 241.177 418.029 241.177 418.448C240.758 420.123 240.549 421.588 240.549 422.844C240.967 424.1 242.851 424.728 246.201 424.728L330.981 425.356ZM504.765 540.28C486.762 540.28 470.643 536.093 456.409 527.72C442.174 519.347 431.079 507.833 423.125 493.18C415.17 478.108 411.193 461.361 411.193 442.94C411.193 424.937 415.17 408.819 423.125 394.584C431.079 380.349 442.174 369.255 456.409 361.3C470.643 352.927 486.762 348.74 504.765 348.74C516.487 348.74 526.954 350.833 536.165 355.02C545.375 358.788 553.33 363.812 560.029 370.092C560.866 364.231 563.378 359.835 567.565 356.904C571.751 353.555 576.357 351.88 581.381 351.88C586.823 351.88 591.638 353.764 595.825 357.532C600.43 360.881 602.733 366.115 602.733 373.232V520.812C602.733 527.092 600.43 531.907 595.825 535.256C591.638 538.605 586.823 540.28 581.381 540.28C575.938 540.28 570.914 538.605 566.309 535.256C562.122 531.907 560.029 527.092 560.029 520.812V518.3C553.33 524.999 545.375 530.232 536.165 534C526.954 538.187 516.487 540.28 504.765 540.28ZM508.533 501.344C524.442 501.344 537.002 496.111 546.213 485.644C555.423 474.759 560.029 460.524 560.029 442.94C560.029 426.193 555.423 412.796 546.213 402.748C537.002 392.7 524.442 387.676 508.533 387.676C492.205 387.676 479.017 392.7 468.969 402.748C458.921 412.796 453.897 426.193 453.897 442.94C453.897 460.524 458.921 474.759 468.969 485.644C479.017 496.111 492.205 501.344 508.533 501.344ZM721.018 540.28C704.69 540.28 691.292 535.256 680.826 525.208C670.359 515.16 665.126 500.088 665.126 479.992V400.236C665.126 396.049 663.032 393.956 658.846 393.956H647.542C642.099 393.956 637.494 392.281 633.726 388.932C629.958 385.164 628.074 380.559 628.074 375.116C628.074 369.255 629.958 364.44 633.726 360.672C637.494 356.904 642.099 355.02 647.542 355.02H658.846C663.032 355.02 665.126 352.927 665.126 348.74V295.988C665.126 290.127 667.01 285.521 670.778 282.172C674.964 278.404 679.988 276.52 685.85 276.52C692.13 276.52 697.154 278.404 700.922 282.172C705.108 285.521 707.202 290.127 707.202 295.988V348.74C707.202 352.927 709.295 355.02 713.482 355.02H747.394C752.418 355.02 756.814 356.904 760.582 360.672C764.35 364.44 766.234 369.255 766.234 375.116C766.234 380.559 764.35 385.164 760.582 388.932C757.232 392.281 752.627 393.956 746.766 393.956H713.482C709.295 393.956 707.202 396.049 707.202 400.236V474.34C707.202 491.924 714.319 500.716 728.554 500.716C732.74 500.716 737.136 500.088 741.742 498.832C746.347 497.576 749.487 496.948 751.162 496.948C757.023 496.948 761.419 498.832 764.35 502.6C767.699 506.368 769.374 510.764 769.374 515.788C769.374 519.556 768.327 523.324 766.234 527.092C764.14 530.441 760.791 532.953 756.186 534.628C751.58 536.303 745.719 537.559 738.602 538.396C731.903 539.652 726.042 540.28 721.018 540.28ZM930.917 369.464C930.917 363.603 932.801 358.788 936.569 355.02C940.755 350.833 945.989 348.74 952.269 348.74C958.13 348.74 963.154 350.833 967.341 355.02C971.527 358.788 973.621 363.603 973.621 369.464V458.012C973.621 476.852 969.434 492.343 961.061 504.484C952.687 516.625 941.802 525.627 928.405 531.488C915.007 537.349 900.773 540.28 885.701 540.28C870.629 540.28 856.394 537.349 842.997 531.488C829.599 525.627 818.714 516.625 810.341 504.484C801.967 492.343 797.781 476.852 797.781 458.012V369.464C797.781 363.603 799.665 358.788 803.433 355.02C807.619 350.833 812.853 348.74 819.133 348.74C824.994 348.74 830.018 350.833 834.205 355.02C838.391 358.788 840.485 363.603 840.485 369.464V458.012C840.485 473.503 845.09 484.597 854.301 491.296C863.511 497.995 873.978 501.344 885.701 501.344C897.842 501.344 908.309 497.995 917.101 491.296C926.311 484.597 930.917 473.503 930.917 458.012V369.464ZM1063.18 441.056V520.812C1063.18 527.092 1060.88 531.907 1056.27 535.256C1052.08 538.605 1047.27 540.28 1041.83 540.28C1036.38 540.28 1031.36 538.605 1026.76 535.256C1022.57 531.907 1020.48 527.092 1020.48 520.812V373.232C1020.48 366.115 1022.57 360.881 1026.76 357.532C1031.36 353.764 1036.38 351.88 1041.83 351.88C1047.27 351.88 1052.08 353.764 1056.27 357.532C1060.88 360.881 1063.18 366.115 1063.18 373.232V375.744C1069.04 367.789 1076.58 361.3 1085.79 356.276C1095.42 351.252 1105.46 348.74 1115.93 348.74C1120.96 348.74 1125.98 349.368 1131 350.624C1136.03 351.88 1139.8 354.392 1142.31 358.16C1144.82 361.928 1146.08 366.115 1146.08 370.72C1146.08 376.163 1144.19 381.187 1140.42 385.792C1137.07 389.979 1132.05 392.072 1125.35 392.072C1122.42 392.072 1119.28 391.653 1115.93 390.816C1113 389.979 1109.23 389.56 1104.63 389.56C1092.49 389.56 1082.44 394.165 1074.48 403.376C1066.95 412.587 1063.18 425.147 1063.18 441.056Z" fill="#282828"/>
<g style="mix-blend-mode:multiply">
<rect x="1263.5" y="286.5" width="147.912" height="73" rx="36.5" fill="white"/>
<rect x="1263.5" y="286.5" width="147.912" height="73" rx="36.5" stroke="#FF3A4C" stroke-width="3"/>
</g>
<circle cx="1375.22" cy="323" r="28.2105" fill="#FF3A4C" stroke="#FF3A4C" stroke-width="3"/>
<circle cx="1375.22" cy="323" r="28.2105" fill="#FF3A4C" stroke="#FF3A4C" stroke-width="3"/>
<path d="M1264 419C1264 390.281 1287.28 367 1316 367V367C1323.18 367 1329 372.82 1329 380V507.5C1329 525.449 1314.45 540 1296.5 540V540C1278.55 540 1264 525.449 1264 507.5V419Z" fill="#FF3A4C"/>
<path d="M1180 433C1180 404.281 1203.28 381 1232 381V381C1239.18 381 1245 386.82 1245 394V507.5C1245 525.449 1230.45 540 1212.5 540V540C1194.55 540 1180 525.449 1180 507.5V433Z" fill="#FF3A4C"/>
<rect x="1327.41" y="359.5" width="147.912" height="73" rx="36.5" transform="rotate(-180 1327.41 359.5)" fill="#FF3A4C" stroke="#FF3A4C" stroke-width="3"/>
<circle cx="1215.69" cy="323" r="28.2105" transform="rotate(-180 1215.69 323)" fill="white" stroke="#FF3A4C" stroke-width="3"/>
<circle cx="1215.69" cy="323" r="28.2105" transform="rotate(-180 1215.69 323)" fill="white" stroke="white" stroke-width="3"/>
</svg>
