<svg width="235" height="255" viewBox="0 0 235 255" fill="none" xmlns="http://www.w3.org/2000/svg">
<g style="mix-blend-mode:multiply">
<rect x="85.5" y="1.5" width="147.912" height="73" rx="36.5" fill="white"/>
<rect x="85.5" y="1.5" width="147.912" height="73" rx="36.5" stroke="#FF3A4C" stroke-width="3"/>
</g>
<circle cx="197.219" cy="38.0001" r="28.2105" fill="#FF3A4C" stroke="#FF3A4C" stroke-width="3"/>
<circle cx="197.219" cy="38.0001" r="28.2105" fill="#FF3A4C" stroke="#FF3A4C" stroke-width="3"/>
<path d="M86 134C86 105.281 109.281 82 138 82V82C145.18 82 151 87.8203 151 95V222.5C151 240.449 136.449 255 118.5 255V255C100.551 255 86 240.449 86 222.5V134Z" fill="#FF3A4C"/>
<path d="M2 148C2 119.281 25.2812 96 54 96V96C61.1797 96 67 101.82 67 109V222.5C67 240.449 52.4493 255 34.5 255V255C16.5507 255 2 240.449 2 222.5V148Z" fill="#FF3A4C"/>
<rect x="149.412" y="74.5" width="147.912" height="73" rx="36.5" transform="rotate(-180 149.412 74.5)" fill="#FF3A4C" stroke="#FF3A4C" stroke-width="3"/>
<circle cx="37.6928" cy="37.9999" r="28.2105" transform="rotate(-180 37.6928 37.9999)" fill="white" stroke="#FF3A4C" stroke-width="3"/>
<circle cx="37.6928" cy="37.9999" r="28.2105" transform="rotate(-180 37.6928 37.9999)" fill="white" stroke="white" stroke-width="3"/>
</svg>
